<mxfile host="app.diagrams.net" modified="2022-03-23T02:51:49.578Z" agent="5.0 (Macintosh; Intel Mac OS X 10_15_7) AppleWebKit/537.36 (KHTML, like Gecko) Chrome/99.0.4844.74 Safari/537.36" etag="ZY2wz8m-upCGGUuwxCnC" version="17.1.3" type="github">
  <diagram id="prtHgNgQTEPvFCAcTncT" name="Page-1">
    <mxGraphModel dx="1634" dy="741" grid="0" gridSize="10" guides="1" tooltips="1" connect="1" arrows="1" fold="1" page="0" pageScale="1" pageWidth="827" pageHeight="1169" math="0" shadow="0">
      <root>
        <mxCell id="0" />
        <mxCell id="1" parent="0" />
        <mxCell id="A7w1lkCzuEjhZIaYTnMq-19" value="pms 主模块" style="swimlane;fontSize=14;fillColor=#dae8fc;strokeColor=#6c8ebf;" vertex="1" parent="1">
          <mxGeometry x="-30" y="160" width="730" height="570" as="geometry" />
        </mxCell>
        <mxCell id="A7w1lkCzuEjhZIaYTnMq-20" value="modules 自定义模块" style="swimlane;fontSize=14;fillColor=#dae8fc;strokeColor=#6c8ebf;" vertex="1" parent="A7w1lkCzuEjhZIaYTnMq-19">
          <mxGeometry x="23" y="63" width="486" height="470" as="geometry" />
        </mxCell>
        <mxCell id="A7w1lkCzuEjhZIaYTnMq-71" value="" style="group;fillColor=#f5f5f5;fontColor=#333333;strokeColor=#666666;" vertex="1" connectable="0" parent="A7w1lkCzuEjhZIaYTnMq-20">
          <mxGeometry x="16" y="40" width="454" height="90" as="geometry" />
        </mxCell>
        <mxCell id="A7w1lkCzuEjhZIaYTnMq-26" value="lz" style="shape=umlFrame;whiteSpace=wrap;html=1;width=70;height=20;boundedLbl=1;verticalAlign=middle;align=left;spacingLeft=5;fontSize=14;" vertex="1" parent="A7w1lkCzuEjhZIaYTnMq-71">
          <mxGeometry width="454" height="90" as="geometry" />
        </mxCell>
        <mxCell id="A7w1lkCzuEjhZIaYTnMq-28" value="models" style="rounded=0;whiteSpace=wrap;html=1;fontSize=14;fillColor=#fff2cc;strokeColor=#d6b656;" vertex="1" parent="A7w1lkCzuEjhZIaYTnMq-71">
          <mxGeometry x="120" y="19" width="80" height="40" as="geometry" />
        </mxCell>
        <mxCell id="A7w1lkCzuEjhZIaYTnMq-29" value="models" style="rounded=0;whiteSpace=wrap;html=1;fontSize=14;fillColor=#fff2cc;strokeColor=#d6b656;" vertex="1" parent="A7w1lkCzuEjhZIaYTnMq-71">
          <mxGeometry x="124" y="24" width="80" height="40" as="geometry" />
        </mxCell>
        <mxCell id="A7w1lkCzuEjhZIaYTnMq-30" value="controllers" style="rounded=0;whiteSpace=wrap;html=1;fontSize=14;fillColor=#fff2cc;strokeColor=#d6b656;" vertex="1" parent="A7w1lkCzuEjhZIaYTnMq-71">
          <mxGeometry x="129" y="30" width="80" height="40" as="geometry" />
        </mxCell>
        <mxCell id="A7w1lkCzuEjhZIaYTnMq-7" value="models" style="rounded=0;whiteSpace=wrap;html=1;fontSize=14;fillColor=#fff2cc;strokeColor=#d6b656;" vertex="1" parent="A7w1lkCzuEjhZIaYTnMq-71">
          <mxGeometry x="230" y="20" width="80" height="40" as="geometry" />
        </mxCell>
        <mxCell id="A7w1lkCzuEjhZIaYTnMq-10" value="models" style="rounded=0;whiteSpace=wrap;html=1;fontSize=14;fillColor=#fff2cc;strokeColor=#d6b656;" vertex="1" parent="A7w1lkCzuEjhZIaYTnMq-71">
          <mxGeometry x="234" y="25" width="80" height="40" as="geometry" />
        </mxCell>
        <mxCell id="A7w1lkCzuEjhZIaYTnMq-11" value="models" style="rounded=0;whiteSpace=wrap;html=1;fontSize=14;fillColor=#fff2cc;strokeColor=#d6b656;" vertex="1" parent="A7w1lkCzuEjhZIaYTnMq-71">
          <mxGeometry x="239" y="31" width="80" height="40" as="geometry" />
        </mxCell>
        <mxCell id="A7w1lkCzuEjhZIaYTnMq-6" value="views" style="rounded=0;whiteSpace=wrap;html=1;fontSize=14;fillColor=#fff2cc;strokeColor=#d6b656;" vertex="1" parent="A7w1lkCzuEjhZIaYTnMq-71">
          <mxGeometry x="340" y="20" width="80" height="40" as="geometry" />
        </mxCell>
        <mxCell id="A7w1lkCzuEjhZIaYTnMq-14" value="views" style="rounded=0;whiteSpace=wrap;html=1;fontSize=14;fillColor=#fff2cc;strokeColor=#d6b656;" vertex="1" parent="A7w1lkCzuEjhZIaYTnMq-71">
          <mxGeometry x="344" y="25" width="80" height="40" as="geometry" />
        </mxCell>
        <mxCell id="A7w1lkCzuEjhZIaYTnMq-15" value="views" style="rounded=0;whiteSpace=wrap;html=1;fontSize=14;fillColor=#fff2cc;strokeColor=#d6b656;" vertex="1" parent="A7w1lkCzuEjhZIaYTnMq-71">
          <mxGeometry x="349" y="30" width="80" height="40" as="geometry" />
        </mxCell>
        <mxCell id="A7w1lkCzuEjhZIaYTnMq-72" value="" style="group;fillColor=#f5f5f5;strokeColor=#666666;fontColor=#333333;" vertex="1" connectable="0" parent="A7w1lkCzuEjhZIaYTnMq-20">
          <mxGeometry x="16" y="150" width="454" height="90" as="geometry" />
        </mxCell>
        <mxCell id="A7w1lkCzuEjhZIaYTnMq-31" value="tj" style="shape=umlFrame;whiteSpace=wrap;html=1;width=70;height=20;boundedLbl=1;verticalAlign=middle;align=left;spacingLeft=5;fontSize=14;" vertex="1" parent="A7w1lkCzuEjhZIaYTnMq-72">
          <mxGeometry width="454" height="90" as="geometry" />
        </mxCell>
        <mxCell id="A7w1lkCzuEjhZIaYTnMq-41" value="models" style="rounded=0;whiteSpace=wrap;html=1;fontSize=14;fillColor=#fff2cc;strokeColor=#d6b656;" vertex="1" parent="A7w1lkCzuEjhZIaYTnMq-72">
          <mxGeometry x="230" y="20" width="80" height="40" as="geometry" />
        </mxCell>
        <mxCell id="A7w1lkCzuEjhZIaYTnMq-42" value="models" style="rounded=0;whiteSpace=wrap;html=1;fontSize=14;fillColor=#fff2cc;strokeColor=#d6b656;" vertex="1" parent="A7w1lkCzuEjhZIaYTnMq-72">
          <mxGeometry x="234" y="25" width="80" height="40" as="geometry" />
        </mxCell>
        <mxCell id="A7w1lkCzuEjhZIaYTnMq-43" value="models" style="rounded=0;whiteSpace=wrap;html=1;fontSize=14;fillColor=#fff2cc;strokeColor=#d6b656;" vertex="1" parent="A7w1lkCzuEjhZIaYTnMq-72">
          <mxGeometry x="239" y="31" width="80" height="40" as="geometry" />
        </mxCell>
        <mxCell id="A7w1lkCzuEjhZIaYTnMq-33" value="views" style="rounded=0;whiteSpace=wrap;html=1;fontSize=14;fillColor=#fff2cc;strokeColor=#d6b656;" vertex="1" parent="A7w1lkCzuEjhZIaYTnMq-72">
          <mxGeometry x="340" y="20" width="80" height="40" as="geometry" />
        </mxCell>
        <mxCell id="A7w1lkCzuEjhZIaYTnMq-34" value="views" style="rounded=0;whiteSpace=wrap;html=1;fontSize=14;fillColor=#fff2cc;strokeColor=#d6b656;" vertex="1" parent="A7w1lkCzuEjhZIaYTnMq-72">
          <mxGeometry x="344" y="25" width="80" height="40" as="geometry" />
        </mxCell>
        <mxCell id="A7w1lkCzuEjhZIaYTnMq-35" value="views" style="rounded=0;whiteSpace=wrap;html=1;fontSize=14;fillColor=#fff2cc;strokeColor=#d6b656;" vertex="1" parent="A7w1lkCzuEjhZIaYTnMq-72">
          <mxGeometry x="349" y="30" width="80" height="40" as="geometry" />
        </mxCell>
        <mxCell id="A7w1lkCzuEjhZIaYTnMq-37" value="models" style="rounded=0;whiteSpace=wrap;html=1;fontSize=14;fillColor=#fff2cc;strokeColor=#d6b656;" vertex="1" parent="A7w1lkCzuEjhZIaYTnMq-72">
          <mxGeometry x="120" y="19" width="80" height="40" as="geometry" />
        </mxCell>
        <mxCell id="A7w1lkCzuEjhZIaYTnMq-38" value="models" style="rounded=0;whiteSpace=wrap;html=1;fontSize=14;fillColor=#fff2cc;strokeColor=#d6b656;" vertex="1" parent="A7w1lkCzuEjhZIaYTnMq-72">
          <mxGeometry x="124" y="24" width="80" height="40" as="geometry" />
        </mxCell>
        <mxCell id="A7w1lkCzuEjhZIaYTnMq-39" value="controllers" style="rounded=0;whiteSpace=wrap;html=1;fontSize=14;fillColor=#fff2cc;strokeColor=#d6b656;" vertex="1" parent="A7w1lkCzuEjhZIaYTnMq-72">
          <mxGeometry x="129" y="30" width="80" height="40" as="geometry" />
        </mxCell>
        <mxCell id="A7w1lkCzuEjhZIaYTnMq-73" value="" style="group;fillColor=#f5f5f5;strokeColor=#666666;fontColor=#333333;" vertex="1" connectable="0" parent="A7w1lkCzuEjhZIaYTnMq-20">
          <mxGeometry x="16" y="260" width="454" height="90" as="geometry" />
        </mxCell>
        <mxCell id="A7w1lkCzuEjhZIaYTnMq-44" value="xg" style="shape=umlFrame;whiteSpace=wrap;html=1;width=70;height=20;boundedLbl=1;verticalAlign=middle;align=left;spacingLeft=5;fontSize=14;" vertex="1" parent="A7w1lkCzuEjhZIaYTnMq-73">
          <mxGeometry width="454" height="90" as="geometry" />
        </mxCell>
        <mxCell id="A7w1lkCzuEjhZIaYTnMq-54" value="models" style="rounded=0;whiteSpace=wrap;html=1;fontSize=14;fillColor=#fff2cc;strokeColor=#d6b656;" vertex="1" parent="A7w1lkCzuEjhZIaYTnMq-73">
          <mxGeometry x="230" y="20" width="80" height="40" as="geometry" />
        </mxCell>
        <mxCell id="A7w1lkCzuEjhZIaYTnMq-55" value="models" style="rounded=0;whiteSpace=wrap;html=1;fontSize=14;fillColor=#fff2cc;strokeColor=#d6b656;" vertex="1" parent="A7w1lkCzuEjhZIaYTnMq-73">
          <mxGeometry x="234" y="25" width="80" height="40" as="geometry" />
        </mxCell>
        <mxCell id="A7w1lkCzuEjhZIaYTnMq-56" value="models" style="rounded=0;whiteSpace=wrap;html=1;fontSize=14;fillColor=#fff2cc;strokeColor=#d6b656;" vertex="1" parent="A7w1lkCzuEjhZIaYTnMq-73">
          <mxGeometry x="239" y="31" width="80" height="40" as="geometry" />
        </mxCell>
        <mxCell id="A7w1lkCzuEjhZIaYTnMq-46" value="views" style="rounded=0;whiteSpace=wrap;html=1;fontSize=14;fillColor=#fff2cc;strokeColor=#d6b656;" vertex="1" parent="A7w1lkCzuEjhZIaYTnMq-73">
          <mxGeometry x="340" y="20" width="80" height="40" as="geometry" />
        </mxCell>
        <mxCell id="A7w1lkCzuEjhZIaYTnMq-47" value="views" style="rounded=0;whiteSpace=wrap;html=1;fontSize=14;fillColor=#fff2cc;strokeColor=#d6b656;" vertex="1" parent="A7w1lkCzuEjhZIaYTnMq-73">
          <mxGeometry x="344" y="25" width="80" height="40" as="geometry" />
        </mxCell>
        <mxCell id="A7w1lkCzuEjhZIaYTnMq-48" value="views" style="rounded=0;whiteSpace=wrap;html=1;fontSize=14;fillColor=#fff2cc;strokeColor=#d6b656;" vertex="1" parent="A7w1lkCzuEjhZIaYTnMq-73">
          <mxGeometry x="349" y="30" width="80" height="40" as="geometry" />
        </mxCell>
        <mxCell id="A7w1lkCzuEjhZIaYTnMq-50" value="models" style="rounded=0;whiteSpace=wrap;html=1;fontSize=14;fillColor=#fff2cc;strokeColor=#d6b656;" vertex="1" parent="A7w1lkCzuEjhZIaYTnMq-73">
          <mxGeometry x="120" y="19" width="80" height="40" as="geometry" />
        </mxCell>
        <mxCell id="A7w1lkCzuEjhZIaYTnMq-51" value="models" style="rounded=0;whiteSpace=wrap;html=1;fontSize=14;fillColor=#fff2cc;strokeColor=#d6b656;" vertex="1" parent="A7w1lkCzuEjhZIaYTnMq-73">
          <mxGeometry x="124" y="24" width="80" height="40" as="geometry" />
        </mxCell>
        <mxCell id="A7w1lkCzuEjhZIaYTnMq-52" value="controllers" style="rounded=0;whiteSpace=wrap;html=1;fontSize=14;fillColor=#fff2cc;strokeColor=#d6b656;" vertex="1" parent="A7w1lkCzuEjhZIaYTnMq-73">
          <mxGeometry x="129" y="30" width="80" height="40" as="geometry" />
        </mxCell>
        <mxCell id="A7w1lkCzuEjhZIaYTnMq-96" value="" style="group;fillColor=#f5f5f5;strokeColor=#666666;fontColor=#333333;" vertex="1" connectable="0" parent="A7w1lkCzuEjhZIaYTnMq-20">
          <mxGeometry x="16" y="365" width="454" height="90" as="geometry" />
        </mxCell>
        <mxCell id="A7w1lkCzuEjhZIaYTnMq-97" value="boya" style="shape=umlFrame;whiteSpace=wrap;html=1;width=70;height=20;boundedLbl=1;verticalAlign=middle;align=left;spacingLeft=5;fontSize=14;" vertex="1" parent="A7w1lkCzuEjhZIaYTnMq-96">
          <mxGeometry width="454" height="90" as="geometry" />
        </mxCell>
        <mxCell id="A7w1lkCzuEjhZIaYTnMq-99" value="views" style="rounded=0;whiteSpace=wrap;html=1;fontSize=14;fillColor=#fff2cc;strokeColor=#d6b656;" vertex="1" parent="A7w1lkCzuEjhZIaYTnMq-96">
          <mxGeometry x="340" y="20" width="80" height="40" as="geometry" />
        </mxCell>
        <mxCell id="A7w1lkCzuEjhZIaYTnMq-100" value="views" style="rounded=0;whiteSpace=wrap;html=1;fontSize=14;fillColor=#fff2cc;strokeColor=#d6b656;" vertex="1" parent="A7w1lkCzuEjhZIaYTnMq-96">
          <mxGeometry x="344" y="25" width="80" height="40" as="geometry" />
        </mxCell>
        <mxCell id="A7w1lkCzuEjhZIaYTnMq-101" value="views" style="rounded=0;whiteSpace=wrap;html=1;fontSize=14;fillColor=#fff2cc;strokeColor=#d6b656;" vertex="1" parent="A7w1lkCzuEjhZIaYTnMq-96">
          <mxGeometry x="349" y="30" width="80" height="40" as="geometry" />
        </mxCell>
        <mxCell id="A7w1lkCzuEjhZIaYTnMq-107" value="models" style="rounded=0;whiteSpace=wrap;html=1;fontSize=14;fillColor=#fff2cc;strokeColor=#d6b656;" vertex="1" parent="A7w1lkCzuEjhZIaYTnMq-96">
          <mxGeometry x="230" y="20" width="80" height="40" as="geometry" />
        </mxCell>
        <mxCell id="A7w1lkCzuEjhZIaYTnMq-108" value="models" style="rounded=0;whiteSpace=wrap;html=1;fontSize=14;fillColor=#fff2cc;strokeColor=#d6b656;" vertex="1" parent="A7w1lkCzuEjhZIaYTnMq-96">
          <mxGeometry x="234" y="25" width="80" height="40" as="geometry" />
        </mxCell>
        <mxCell id="A7w1lkCzuEjhZIaYTnMq-109" value="models" style="rounded=0;whiteSpace=wrap;html=1;fontSize=14;fillColor=#fff2cc;strokeColor=#d6b656;" vertex="1" parent="A7w1lkCzuEjhZIaYTnMq-96">
          <mxGeometry x="239" y="31" width="80" height="40" as="geometry" />
        </mxCell>
        <mxCell id="A7w1lkCzuEjhZIaYTnMq-103" value="models" style="rounded=0;whiteSpace=wrap;html=1;fontSize=14;fillColor=#fff2cc;strokeColor=#d6b656;" vertex="1" parent="A7w1lkCzuEjhZIaYTnMq-96">
          <mxGeometry x="120" y="19" width="80" height="40" as="geometry" />
        </mxCell>
        <mxCell id="A7w1lkCzuEjhZIaYTnMq-104" value="models" style="rounded=0;whiteSpace=wrap;html=1;fontSize=14;fillColor=#fff2cc;strokeColor=#d6b656;" vertex="1" parent="A7w1lkCzuEjhZIaYTnMq-96">
          <mxGeometry x="124" y="24" width="80" height="40" as="geometry" />
        </mxCell>
        <mxCell id="A7w1lkCzuEjhZIaYTnMq-105" value="controllers" style="rounded=0;whiteSpace=wrap;html=1;fontSize=14;fillColor=#fff2cc;strokeColor=#d6b656;" vertex="1" parent="A7w1lkCzuEjhZIaYTnMq-96">
          <mxGeometry x="129" y="30" width="80" height="40" as="geometry" />
        </mxCell>
        <mxCell id="A7w1lkCzuEjhZIaYTnMq-80" value="models" style="rounded=0;whiteSpace=wrap;html=1;fontSize=14;fillColor=#fff2cc;strokeColor=#d6b656;" vertex="1" parent="A7w1lkCzuEjhZIaYTnMq-19">
          <mxGeometry x="579" y="73" width="107.86516853932584" height="40" as="geometry" />
        </mxCell>
        <mxCell id="A7w1lkCzuEjhZIaYTnMq-81" value="models" style="rounded=0;whiteSpace=wrap;html=1;fontSize=14;fillColor=#fff2cc;strokeColor=#d6b656;" vertex="1" parent="A7w1lkCzuEjhZIaYTnMq-19">
          <mxGeometry x="584.3932584269663" y="78" width="107.86516853932584" height="40" as="geometry" />
        </mxCell>
        <mxCell id="A7w1lkCzuEjhZIaYTnMq-82" value="controllers" style="rounded=0;whiteSpace=wrap;html=1;fontSize=14;fillColor=#fff2cc;strokeColor=#d6b656;" vertex="1" parent="A7w1lkCzuEjhZIaYTnMq-19">
          <mxGeometry x="591.1348314606741" y="84" width="107.86516853932584" height="40" as="geometry" />
        </mxCell>
        <mxCell id="A7w1lkCzuEjhZIaYTnMq-88" value="views" style="rounded=0;whiteSpace=wrap;html=1;fontSize=14;fillColor=#fff2cc;strokeColor=#d6b656;" vertex="1" parent="A7w1lkCzuEjhZIaYTnMq-19">
          <mxGeometry x="579" y="323" width="107.86516853932584" height="40" as="geometry" />
        </mxCell>
        <mxCell id="A7w1lkCzuEjhZIaYTnMq-89" value="views" style="rounded=0;whiteSpace=wrap;html=1;fontSize=14;fillColor=#fff2cc;strokeColor=#d6b656;" vertex="1" parent="A7w1lkCzuEjhZIaYTnMq-19">
          <mxGeometry x="584.3932584269663" y="328" width="107.86516853932584" height="40" as="geometry" />
        </mxCell>
        <mxCell id="A7w1lkCzuEjhZIaYTnMq-90" value="components" style="rounded=0;whiteSpace=wrap;html=1;fontSize=14;fillColor=#fff2cc;strokeColor=#d6b656;" vertex="1" parent="A7w1lkCzuEjhZIaYTnMq-19">
          <mxGeometry x="591.1348314606741" y="333" width="107.86516853932584" height="40" as="geometry" />
        </mxCell>
        <mxCell id="A7w1lkCzuEjhZIaYTnMq-76" value="views" style="rounded=0;whiteSpace=wrap;html=1;fontSize=14;container=0;fillColor=#fff2cc;strokeColor=#d6b656;" vertex="1" parent="A7w1lkCzuEjhZIaYTnMq-19">
          <mxGeometry x="579" y="233" width="107.86516853932584" height="40" as="geometry" />
        </mxCell>
        <mxCell id="A7w1lkCzuEjhZIaYTnMq-77" value="views" style="rounded=0;whiteSpace=wrap;html=1;fontSize=14;container=0;fillColor=#fff2cc;strokeColor=#d6b656;" vertex="1" parent="A7w1lkCzuEjhZIaYTnMq-19">
          <mxGeometry x="584.3932584269663" y="238" width="107.86516853932584" height="40" as="geometry" />
        </mxCell>
        <mxCell id="A7w1lkCzuEjhZIaYTnMq-78" value="views" style="rounded=0;whiteSpace=wrap;html=1;fontSize=14;container=0;fillColor=#fff2cc;strokeColor=#d6b656;" vertex="1" parent="A7w1lkCzuEjhZIaYTnMq-19">
          <mxGeometry x="591.1348314606741" y="243" width="107.86516853932584" height="40" as="geometry" />
        </mxCell>
        <mxCell id="A7w1lkCzuEjhZIaYTnMq-84" value="models" style="rounded=0;whiteSpace=wrap;html=1;fontSize=14;container=0;fillColor=#fff2cc;strokeColor=#d6b656;" vertex="1" parent="A7w1lkCzuEjhZIaYTnMq-19">
          <mxGeometry x="579" y="153" width="107.86516853932584" height="40" as="geometry" />
        </mxCell>
        <mxCell id="A7w1lkCzuEjhZIaYTnMq-85" value="models" style="rounded=0;whiteSpace=wrap;html=1;fontSize=14;container=0;fillColor=#fff2cc;strokeColor=#d6b656;" vertex="1" parent="A7w1lkCzuEjhZIaYTnMq-19">
          <mxGeometry x="584.3932584269663" y="158" width="107.86516853932584" height="40" as="geometry" />
        </mxCell>
        <mxCell id="A7w1lkCzuEjhZIaYTnMq-86" value="models" style="rounded=0;whiteSpace=wrap;html=1;fontSize=14;container=0;fillColor=#fff2cc;strokeColor=#d6b656;" vertex="1" parent="A7w1lkCzuEjhZIaYTnMq-19">
          <mxGeometry x="591.1348314606741" y="164" width="107.86516853932584" height="40" as="geometry" />
        </mxCell>
        <mxCell id="A7w1lkCzuEjhZIaYTnMq-93" value="views" style="rounded=0;whiteSpace=wrap;html=1;fontSize=14;container=0;fillColor=#fff2cc;strokeColor=#d6b656;" vertex="1" parent="A7w1lkCzuEjhZIaYTnMq-19">
          <mxGeometry x="579" y="423" width="107.86516853932584" height="40" as="geometry" />
        </mxCell>
        <mxCell id="A7w1lkCzuEjhZIaYTnMq-94" value="views" style="rounded=0;whiteSpace=wrap;html=1;fontSize=14;container=0;fillColor=#fff2cc;strokeColor=#d6b656;" vertex="1" parent="A7w1lkCzuEjhZIaYTnMq-19">
          <mxGeometry x="584.3932584269663" y="428" width="107.86516853932584" height="40" as="geometry" />
        </mxCell>
        <mxCell id="A7w1lkCzuEjhZIaYTnMq-95" value="......" style="rounded=0;whiteSpace=wrap;html=1;fontSize=14;container=0;fillColor=#fff2cc;strokeColor=#d6b656;" vertex="1" parent="A7w1lkCzuEjhZIaYTnMq-19">
          <mxGeometry x="591.1348314606741" y="433" width="107.86516853932584" height="40" as="geometry" />
        </mxCell>
      </root>
    </mxGraphModel>
  </diagram>
</mxfile>
